<?xml version="1.0" standalone="no"?><!DOCTYPE svg PUBLIC "-//W3C//DTD SVG 1.1//EN" "http://www.w3.org/Graphics/SVG/1.1/DTD/svg11.dtd"><svg width="100%" height="100%" viewBox="0 0 702 394" version="1.1" xmlns="http://www.w3.org/2000/svg" xmlns:xlink="http://www.w3.org/1999/xlink" xml:space="preserve" style="fill-rule:evenodd;clip-rule:evenodd;stroke-linejoin:round;stroke-miterlimit:1.41421;"><path id="path2832" d="M702.535,207.266c-0.95206,9.42867 -4.77999,29.3324 -7.36621,38.3013c-15.8356,54.9174 -54.37,100.411 -107.562,126.987c-37.6499,18.8111 -85.4541,26.0841 -128.971,19.6216c-63.9408,-9.4955 -122.182,-45.6721 -161.317,-100.203c-19.0033,-26.4791 -28.805,-45.6327 -54.3506,-106.208c-14.2837,-33.8702 -20.2605,-45.8377 -30.9947,-62.061c-17.6941,-26.7423 -36.8466,-41.4283 -63.338,-48.567c-8.53376,-2.29961 -11.9061,-2.68624 -23,-2.63687c-27.9375,0.12433 -47.4747,8.22501 -67,27.7802c-19.3836,19.4133 -28.1196,42.5956 -26.3729,69.9847c1.42454,22.3369 10.2719,41.7974 26.0427,57.2832c25.7093,25.2446 62.9366,31.9774 95.4065,17.2549c9.80025,-4.44365 7.65029,-2.5422 -2.82637,2.49967c-14.129,6.79954 -22.6508,8.72772 -38.75,8.76771c-14.3791,0.0357 -20.561,-1.07591 -33,-5.93408c-25.2252,-9.8519 -45.6418,-30.7427 -54.8719,-56.1462c-5.78799,-15.93 -7.8913,-31.9579 -6.12981,-46.711c2.2263,-18.646 8.74145,-36.0781 19.0658,-51.0128c5.90683,-8.54454 19.787,-22.2895 28.4377,-28.1607c30.2792,-20.5504 68.7651,-25.6994 103.989,-13.9128c10.5466,3.52912 21.2492,8.49723 27.5092,12.7697c6.19438,4.22767 6.61448,4.05267 1.5,-0.62489c-15.3576,-14.0456 -37.5288,-25.2478 -59.5,-30.0628c-11.4484,-2.50894 -35.3949,-3.10346 -47.5186,-1.17975c-28.7994,4.56966 -54.498,17.3805 -75.2607,37.5178c-4.33937,4.20864 -9.79492,9.90207 -12.1234,12.6521l-4.23368,5l4.31826,-6.40533c5.62969,-8.35059 19.4008,-22.9014 28.6621,-30.2849c19.2154,-15.3194 44.6519,-26.2986 69.1561,-29.8503c10.9222,-1.58306 33.5878,-1.28681 44.8364,0.58604c34.1201,5.68087 65.8914,24.1601 88.7441,51.6163c17.5061,21.0326 32.097,47.5904 52.5586,95.665c14.48,34.0209 29.858,64.3488 41.0739,81.0048c11.0272,16.3756 27.3579,34.8215 40.2871,45.5051c3.994,3.30031 3.3343,2.35478 -3.27882,-4.69942c-14.4076,-15.3685 -24.5619,-29.7903 -35.1437,-49.9133c-9.97235,-18.964 -13.6058,-28.2267 -33.0379,-84.2239c-6.48929,-18.7 -13.5148,-38.2616 -15.6122,-43.4702c-6.29265,-15.6267 -17.745,-37.806 -25.8331,-50.0298l-7.60919,-11.5l9.31157,9.5651c17.2474,17.717 32.0364,39.47 54.6845,80.4349c35.0889,63.4672 45.6297,79.3288 66.0189,99.3436c29.2536,28.7166 69.9116,44.1788 105.879,40.2659c27.205,-2.95959 46.9944,-12.454 64.1206,-30.7634c15.9279,-17.0283 22.9671,-39.8502 18.6059,-60.3225c-2.33531,-10.9624 -5.92244,-17.4883 -14.1685,-25.7757l-7.21583,-7.25211l5.13119,2.75211c7.24112,3.88378 16.9115,13.9973 20.5663,21.5089c8.24501,16.9455 8.99864,36.6612 2.15977,56.5021c-4.34001,12.5912 -11.1634,23.19 -22.0788,34.2954c-13.5771,13.8133 -27.1806,22.5009 -44.5,28.4189c-4.4,1.50348 -8.20194,2.92652 -8.44876,3.16231c-0.6867,0.65602 10.4441,-0.61498 19.9488,-2.2779c40.0489,-7.00692 75.4921,-34.7551 91.0288,-71.2656c10.0143,-23.5333 11.5471,-53.5253 3.93982,-77.0919c-9.46086,-29.309 -33.3473,-55.2287 -61.8196,-67.0818c-34.8815,-14.5212 -74.2591,-10.5202 -107.149,10.887c-7.75262,5.04598 -25.8399,23.4152 -30.9785,31.4614c-4.7793,7.48352 -6.37674,8.33467 -2.96584,1.58026c8.26995,-16.3765 25.1942,-35.6756 39.9444,-45.5496c23.2777,-15.5824 46.6755,-22.0963 75.4153,-20.9956c36.3159,1.39085 67.3193,16.0951 91.8444,43.5599c16.7374,18.7435 26.9096,39.5405 32.3498,66.1384c2.46128,12.0337 2.47346,38.0737 0.0241,51.5c-3.97291,21.7776 -13.6698,44.7423 -26.602,63c-9.37078,13.2297 -29.1447,32.5012 -42.4562,41.3774c-33.0879,22.0632 -70.9392,32.4539 -111.992,30.7434c-8.20436,-0.3418 -14.6981,-0.4026 -14.4305,-0.135c1.32008,1.32 25.9854,4.6502 38.3476,5.1774c45.8166,1.9539 92.4091,-13.5845 128.049,-42.7037c9.72875,-7.94881 26.2756,-25.4869 32.855,-34.823c52.588,-74.6226 43.82,-172.663 -21.03,-235.151c-20.7247,-19.9698 -44.3812,-34.1642 -71.4223,-42.8551c-30.6124,-9.83862 -64.3794,-11.8105 -94.7656,-5.53411c-4.06732,0.84012 -7.60405,1.31857 -7.85941,1.06322c-0.53733,-0.53733 15.1393,-4.13561 24.6735,-5.66334c3.575,-0.57284 13.25,-1.30793 21.5,-1.63352c36.6457,-1.44623 76.5094,9.28784 107.5,28.9465c46.9076,29.7555 78.4245,77.1751 87.5266,131.691c1.52997,9.16361 2.70208,38.279 1.87196,46.5l-2.27374e-13,-2.27374e-13ZM451.407,361.162c-0.33229,0.3323 0.25834,0.5687 1.3125,0.5252c1.16495,-0.048 1.4019,-0.2849 0.60417,-0.6041c-0.72188,-0.2889 -1.58438,-0.2534 -1.91667,0.079l0,-0.0001ZM456.72,8.68678c-1.05416,0.0434 -1.64479,-0.19293 -1.3125,-0.52522c0.33229,-0.33229 1.19479,-0.36781 1.91667,-0.0789c0.79773,0.31922 0.56078,0.55618 -0.60417,0.60416l0,-4e-05Z" style="fill:#fff;fill-rule:nonzero;"/></svg>